<svg xmlns="http://www.w3.org/2000/svg" viewBox="0 0 512 512"><rect width="512" height="512" fill="#e9ddff"/><g fill="none" stroke="#574078" stroke-width="25" stroke-linecap="round" stroke-linejoin="round"><path d="M177 151C159 128 119 132 109 158C101 181 101 218 123 231C142 242 166 238 179 225V196H151"/><path d="M222 235V144H252C297 144 296 192 252 192H222"/><path d="M322 235V168C322 128 386 128 386 168V235M324 199H384"/></g><rect x="111" y="342" width="74" height="55" rx="17" fill="#b8a0d9"/><rect x="219" y="306" width="74" height="91" rx="17" fill="#987ac3"/><rect x="327" y="268" width="74" height="129" rx="17" fill="#75549e"/></svg>